<?xml version="1.0" encoding="UTF-8"?>
<svg id="Layer_1" data-name="Layer 1" xmlns="http://www.w3.org/2000/svg" viewBox="0 0 1068 152">
  <defs>
    <style>
      .cls-1 {
        letter-spacing: 0em;
      }

      .cls-2, .cls-3, .cls-4 {
        fill: #f5f6fa;
      }

      .cls-3 {
        opacity: .25;
      }

      .cls-4 {
        font-family: SatoshiVariable-Bold, 'Satoshi Variable';
        font-size: 158.86px;
        font-variation-settings: 'wght' 700;
        font-weight: 700;
      }

      .cls-5 {
        letter-spacing: -.02em;
      }
    </style>
  </defs>
  <g>
    <rect class="cls-3" x="53" y="106" width="46" height="46" rx="3" ry="3"/>
    <rect class="cls-2" x="53" y="53" width="46" height="46" rx="3" ry="3"/>
    <rect class="cls-3" x="53" width="46" height="46" rx="3" ry="3"/>
    <path class="cls-2" d="M3,106h40c1.66,0,3,1.34,3,3v40c0,1.66-1.34,3-3,3H10C4.48,152,0,147.52,0,142v-33C0,107.34,1.34,106,3,106Z"/>
    <rect class="cls-2" y="53" width="46" height="46" rx="3" ry="3"/>
    <path class="cls-2" d="M10,0h33c1.66,0,3,1.34,3,3v40c0,1.66-1.34,3-3,3H3C1.34,46,0,44.66,0,43V10C0,4.48,4.48,0,10,0Z"/>
    <path class="cls-2" d="M109,106h40c1.66,0,3,1.34,3,3v33c0,5.52-4.48,10-10,10h-33c-1.66,0-3-1.34-3-3v-40c0-1.66,1.34-3,3-3Z"/>
    <rect class="cls-2" x="106" y="53" width="46" height="46" rx="3" ry="3"/>
    <path class="cls-2" d="M109,0h33c5.52,0,10,4.48,10,10v33c0,1.66-1.34,3-3,3h-40c-1.66,0-3-1.34-3-3V3c0-1.66,1.34-3,3-3Z"/>
  </g>
  <text class="cls-4" transform="translate(175.18 133.33)"><tspan x="0" y="0">HemoGua</tspan><tspan class="cls-5" x="745.2" y="0">r</tspan><tspan class="cls-1" x="804.93" y="0">d</tspan></text>
</svg>