<?xml version="1.0" encoding="UTF-8"?>
<svg id="Layer_1" xmlns="http://www.w3.org/2000/svg" viewBox="0 0 152 152">
  <defs>
    <style>
      .cls-1 {
        opacity: .25;
      }
    </style>
  </defs>
  <rect class="cls-1" x="53" y="106" width="46" height="46" rx="3" ry="3"/>
  <rect x="53" y="53" width="46" height="46" rx="3" ry="3"/>
  <rect class="cls-1" x="53" width="46" height="46" rx="3" ry="3"/>
  <path d="M3,106h40c1.66,0,3,1.34,3,3v40c0,1.66-1.34,3-3,3H10c-5.52,0-10-4.48-10-10v-33c0-1.66,1.34-3,3-3Z"/>
  <rect y="53" width="46" height="46" rx="3" ry="3"/>
  <path d="M10,0h33c1.66,0,3,1.34,3,3v40c0,1.66-1.34,3-3,3H3c-1.66,0-3-1.34-3-3V10C0,4.48,4.48,0,10,0Z"/>
  <path d="M109,106h40c1.66,0,3,1.34,3,3v33c0,5.52-4.48,10-10,10h-33c-1.66,0-3-1.34-3-3v-40c0-1.66,1.34-3,3-3Z"/>
  <rect x="106" y="53" width="46" height="46" rx="3" ry="3"/>
  <path d="M109,0h33c5.52,0,10,4.48,10,10v33c0,1.66-1.34,3-3,3h-40c-1.66,0-3-1.34-3-3V3c0-1.66,1.34-3,3-3Z"/>
</svg>