<?xml version="1.0" encoding="UTF-8"?>
<svg id="Layer_1" xmlns="http://www.w3.org/2000/svg" xmlns:xlink="http://www.w3.org/1999/xlink" viewBox="0 0 1278 321">
  <defs>
    <style>
      .cls-1 {
        fill: url(#linear-gradient-2);
      }

      .cls-2, .cls-3 {
        fill: #fff;
      }

      .cls-3, .cls-4, .cls-5 {
        font-family: PlusJakartaSans-Bold, 'Plus Jakarta Sans';
        font-size: 212.91px;
        font-variation-settings: 'wght' 700;
        font-weight: 700;
      }

      .cls-6 {
        letter-spacing: 0em;
      }

      .cls-6, .cls-7 {
        fill: #00060f;
      }

      .cls-5 {
        fill: none;
      }

      .cls-8 {
        fill: url(#linear-gradient);
      }

      .cls-9 {
        clip-path: url(#clippath);
      }
    </style>
    <linearGradient id="linear-gradient" x1="264.92" y1="160.68" x2="1278.45" y2="160.68" gradientUnits="userSpaceOnUse">
      <stop offset="0" stop-color="#fff"/>
      <stop offset=".97" stop-color="#00060f"/>
    </linearGradient>
    <clipPath id="clippath">
      <text class="cls-5" transform="translate(-14.75 228.6)"><tspan x="0" y="0">Pr</tspan></text>
    </clipPath>
    <linearGradient id="linear-gradient-2" x1="-35.21" y1="154.12" x2="216.76" y2="154.12" gradientUnits="userSpaceOnUse">
      <stop offset="0" stop-color="#00060f"/>
      <stop offset="1" stop-color="#fff" stop-opacity=".75"/>
    </linearGradient>
  </defs>
  <text class="cls-3" transform="translate(1106.92 492.6)"><tspan x="0" y="0">o</tspan></text>
  <g>
    <path class="cls-8" d="M264.92,110.22v7.25c.26,0,.5-.04.76-.04,28.37,0,51.37,23,51.37,51.37s-23,51.37-51.37,51.37c-.26,0-.51-.03-.76-.04v11.02l1013.53,90.22V0L264.92,110.22Z"/>
    <text class="cls-4" transform="translate(-22.08 228.6)"><tspan class="cls-2" x="0" y="0" xml:space="preserve">      o</tspan><tspan class="cls-7" x="366.2" y="0">specti</tspan><tspan class="cls-6" x="1020.05" y="0">v</tspan><tspan class="cls-7" x="1138.43" y="0">e</tspan></text>
    <g class="cls-9">
      <rect class="cls-1" x="-35.21" y="51.37" width="251.97" height="205.49"/>
    </g>
  </g>
</svg>